<svg xmlns="http://www.w3.org/2000/svg" viewBox="0 0 512 512">
  <defs>
    <linearGradient id="gold" x1="0" y1="1" x2="0" y2="0">
      <stop offset="0" stop-color="#c47a00"/>
      <stop offset=".45" stop-color="#ffae1a"/>
      <stop offset="1" stop-color="#fff4c8"/>
    </linearGradient>
    <radialGradient id="glow" cx="50%" cy="62%" r="46%">
      <stop offset="0" stop-color="#ffae1a" stop-opacity=".55"/>
      <stop offset="1" stop-color="#ffae1a" stop-opacity="0"/>
    </radialGradient>
  </defs>
  <rect width="512" height="512" rx="112" fill="#101114"/>
  <rect width="512" height="512" rx="112" fill="url(#glow)"/>
  <path fill="url(#gold)" d="M256 86l38 92 28-70 18 78 46-54 4 86 52-28-6 78 48 8-28 62h-48l-18 46h-36l-14-46h-36l-14 46h-36l-18-46h-48l-28-62 48-8-6-78 52 28 4-86 46 54 18-78 28 70z"/>
  <path fill="#7ef0ff" d="M248 250h16l6 54h-28z" opacity=".9"/>
</svg>
